<svg id="Layer_1" data-name="Layer 1" xmlns="http://www.w3.org/2000/svg" viewBox="0 0 64 64"><defs><style>.cls-1{fill:#0795ff}</style></defs><path class="cls-1" d="M26.55 24.68v-1.81a1.25 1.25 0 0 0-1.25-1.25H12.77a1.25 1.25 0 0 0-1.25 1.25v31.57A1.56 1.56 0 0 0 13.08 56h37.84a1.56 1.56 0 0 0 1.56-1.56V26.07a1.25 1.25 0 0 0-1.25-1.25H26.69a.14.14 0 0 1-.14-.14z"/><path d="M51.3 56H12.7a1.34 1.34 0 0 1-1.33-1.16L8.2 31.07a1.34 1.34 0 0 1 1.33-1.52h44.94a1.34 1.34 0 0 1 1.33 1.52l-3.17 23.77A1.34 1.34 0 0 1 51.3 56z" style="fill:#dfe8f4"/><rect class="cls-1" x="29.15" y="36.56" width="5.7" height="12.42" rx=".43"/><rect class="cls-1" x="29.15" y="36.56" width="5.7" height="12.42" rx=".43" transform="rotate(90 32 42.77)"/></svg>